# xmcd
#
# Track frame offsets:
#	150
#	11887
#	25225
#	38162
#	50107
#	62982
#	76562
#	90155
#	102037
#	115012
#	127162
#	138750
#	151687
#	165187
#	176450
#	188155
#	198075
#	209025
#	220712
#	230925
#	241200
#
# Disc length: 3382 seconds
#
# Revision: 0
# Processed by: cddbd v1.4PL0 Copyright (c) Steve Scherf et al.
# Submitted via: audiograbber 1.80
#
DISCID=0f0d3415
DTITLE=Robert Johnson - Kind Hearted Woman
DYEAR=1900
DGENRE=
TTITLE0=Come Into My Kitchen
TTITLE1=I Believe I'll Dust My Broom
TTITLE2=Kind Hearted Woman Blues
TTITLE3=Phonograph Blues
TTITLE4=Rambling On My Mind
TTITLE5=Sweet Home Chicago
TTITLE6=Terraplane Blues
TTITLE7=When You Got A Good Friend
TTITLE8=32-20 Blues
TTITLE9=Cross Road Blues
TTITLE10=If I Had Possession Over Judgement Day
TTITLE11=Preaching Blues
TTITLE12=They're Red Hot
TTITLE13=Walking Blues
TTITLE14=I'm A Steady Rollin' Man
TTITLE15=Little Queen Of Spades
TTITLE16=Love In Vain
TTITLE17=Me And The Devil Blues
TTITLE18=Milk Cow's Calf Blues
TTITLE19=Stop Breakin' Down Blues
TTITLE20=Travelling Riverside Blues
EXTD=
EXTT0=
EXTT1=
EXTT2=
EXTT3=
EXTT4=
EXTT5=
EXTT6=
EXTT7=
EXTT8=
EXTT9=
EXTT10=
EXTT11=
EXTT12=
EXTT13=
EXTT14=
EXTT15=
EXTT16=
EXTT17=
EXTT18=
EXTT19=
EXTT20=
PLAYORDER=
